{"title":"Indycar 2016 Round 12. Honda Indy 200 Mid Ohio 720P RUS/ENG","uid":15464996,"size":4603807779,"categoryP":"video","categoryS":"hd___tv_shows","magnet":"?xt=urn:btih:66824a5f587c6525d5d4cb8ea16e80c775be424d&amp;dn=Indycar+2016+Round+12.+Honda+Indy+200+Mid+Ohio+720P+RUS%2FENG&amp;tr=udp%3A%2F%2Ftracker.leechers-paradise.org%3A6969&amp;tr=udp%3A%2F%2Fzer0day.ch%3A1337&amp;tr=udp%3A%2F%2Fopen.demonii.com%3A1337&amp;tr=udp%3A%2F%2Ftracker.coppersurfer.tk%3A6969&amp;tr=udp%3A%2F%2Fexodus.desync.com%3A6969","seeders":1,"leechers":0,"uploader":"egor0tech","files":1,"time":1470088400,"description":"Indycar 2016 Round 12. Honda Indy 200 Mid Ohio. Viasat Sport HD 720P RUS/ENG\r\n\r\nTECHNICAL:\r\nVideo: H264, 1280x720p, 50 fps, 3 498 Kbps\r\nAudio: 2X MP2 2.0, 48.0 KHz, 192 kb/s (Russian, English)\r\n\r\nMEDIAINFO:\r\nGeneral\r\nUnique ID                                : 204192852488457959424333020883668843102 (0x999E1CE74260AD1EB75ED2B091DE3A5E)\r\nComplete name                            : K:IndycarINDYCAR_2016_R12_HONDA_INDY_200_MID_OHIO_VIASAT_SPORT_HD_720P.mkv\r\nFormat                                   : Matroska\r\nFormat version                           : Version 4 / Version 2\r\nFile size                                : 4.29 GiB\r\nDuration                                 : 2h 37mn\r\nOverall bit rate mode                    : Variable\r\nOverall bit rate                         : 3 886 Kbps\r\nEncoded date                             : UTC 2016-08-01 18:33:17\r\nWriting application                      : mkvmerge v9.1.0 ('Little Earthquakes') 64bit\r\nWriting library                          : libebml v1.3.3 + libmatroska v1.4.4\r\n\r\nVideo\r\nID                                       : 1\r\nFormat                                   : AVC\r\nFormat/Info                              : Advanced Video Codec\r\nFormat profile                           :   \r\nFormat settings, CABAC                   : Yes\r\nFormat settings, ReFrames                : 2 frames\r\nFormat settings, GOP                     : M=3, N=12\r\nCodec ID                                 : V_MPEG4/ISO/AVC\r\nDuration                                 : 2h 37mn\r\nBit rate mode                            : Variable\r\nBit rate                                 : 3 498 Kbps\r\nMaximum bit rate                         : 5 000 Kbps\r\nWidth                                    : 1 280 pixels\r\nHeight                                   : 720 pixels\r\nDisplay aspect ratio                     : 16:9\r\nFrame rate mode                          : Constant\r\nFrame rate                               : 50.000 fps\r\nColor space                              : YUV\r\nChroma subsampling                       : 4:2:0\r\nBit depth                                : 8 bits\r\nScan type                                : Progressive\r\nBits/(Pixel*Frame)                       : 0.076\r\nStream size                              : 3.86 GiB (90%)\r\nDefault                                  : Yes\r\nForced                                   : No\r\n\r\nAudio #1\r\nID                                       : 2\r\nFormat                                   : MPEG Audio\r\nFormat version                           : Version 1\r\nFormat profile                           : Layer 2\r\nCodec ID                                 : A_MPEG/L2\r\nCodec ID/Hint                            : MP2\r\nDuration                                 : 2h 37mn\r\nBit rate mode                            : Constant\r\nBit rate                                 : 192 Kbps\r\nChannel(s)                               : 2 channels\r\nSampling rate                            : 48.0 KHz\r\nFrame rate                               : 41.652 fps (1152 spf)\r\nCompression mode                         : Lossy\r\nDelay relative to video                  : 137ms\r\nStream size                              : 217 MiB (5%)\r\nLanguage                                 : Russian\r\nDefault                                  : Yes\r\nForced                                   : No\r\n\r\nAudio #2\r\nID                                       : 3\r\nFormat                                   : MPEG Audio\r\nFormat version                           : Version 1\r\nFormat profile                           : Layer 2\r\nCodec ID                                 : A_MPEG/L2\r\nCodec ID/Hint                            : MP2\r\nDuration                                 : 2h 37mn\r\nBit rate mode                            : Constant\r\nBit rate                                 : 192 Kbps\r\nChannel(s)                               : 2 channels\r\nSampling rate                            : 48.0 KHz\r\nFrame rate                               : 41.652 fps (1152 spf)\r\nCompression mode                         : Lossy\r\nDelay relative to video                  : 137ms\r\nStream size                              : 217 MiB (5%)\r\nLanguage                                 : English\r\nDefault                                  : No\r\nForced                                   : No","torrent":{"xt":"urn:btih:66824a5f587c6525d5d4cb8ea16e80c775be424d","amp;dn":"Indycar+2016+Round+12.+Honda+Indy+200+Mid+Ohio+720P+RUS%2FENG","amp;tr":["udp%3A%2F%2Ftracker.leechers-paradise.org%3A6969","udp%3A%2F%2Fzer0day.ch%3A1337","udp%3A%2F%2Fopen.demonii.com%3A1337","udp%3A%2F%2Ftracker.coppersurfer.tk%3A6969","udp%3A%2F%2Fexodus.desync.com%3A6969"],"infoHash":"66824a5f587c6525d5d4cb8ea16e80c775be424d","infoHashBuffer":{"type":"Buffer","data":[102,130,74,95,88,124,101,37,213,212,203,142,161,110,128,199,117,190,66,77]},"announce":[],"urlList":[]}}